<svg xmlns="http://www.w3.org/2000/svg" viewBox="0 0 160 160">
  <rect width="160" height="160" rx="36" fill="#fff9ef"/>
  <ellipse cx="80" cy="144" rx="34" ry="10" fill="#d7d7d7" opacity="0.75"/>
  <g transform="translate(8 10)">
    <circle cx="74" cy="58" r="34" fill="#ffbe19" stroke="#cf7c00" stroke-width="4"/>
    <path d="M58 43c5-8 16-10 24-4" fill="none" stroke="#814500" stroke-linecap="round" stroke-width="5"/>
    <path d="M87 44c6-6 15-6 20-1" fill="none" stroke="#814500" stroke-linecap="round" stroke-width="5"/>
    <path d="M57 62c8-7 17-8 23-3v15c-9 3-20-3-23-12Z" fill="#fff"/>
    <path d="M85 60c9-6 17-6 22-1v15c-10 4-20-1-22-14Z" fill="#fff"/>
    <circle cx="72" cy="67" r="4" fill="#1c3658"/>
    <circle cx="95" cy="67" r="4" fill="#1c3658"/>
    <path d="M71 87c8 3 18 1 23-5" fill="none" stroke="#814500" stroke-linecap="round" stroke-width="5"/>
    <path d="M42 84c-10 7-13 13-17 23" fill="none" stroke="#ea8c00" stroke-linecap="round" stroke-width="6"/>
    <path d="M106 84c10 7 13 14 16 24" fill="none" stroke="#ea8c00" stroke-linecap="round" stroke-width="6"/>
    <path d="M26 108l-8 7 6 7 10-2 4-8-12-4Z" fill="#f5f5f5" stroke="#808080" stroke-width="2"/>
    <path d="M122 108l8 7-6 7-10-2-4-8 12-4Z" fill="#f5f5f5" stroke="#808080" stroke-width="2"/>
    <path d="M60 94c-10 12-17 25-18 35" fill="none" stroke="#ea8c00" stroke-linecap="round" stroke-width="7"/>
    <path d="M92 95c11 12 18 24 19 34" fill="none" stroke="#ea8c00" stroke-linecap="round" stroke-width="7"/>
    <path d="M45 127l-14 4 4 11 15-2 4-8-9-5Z" fill="#f8f8f8" stroke="#9b9b9b" stroke-width="2"/>
    <path d="M106 127l14 4-4 11-15-2-4-8 9-5Z" fill="#f8f8f8" stroke="#9b9b9b" stroke-width="2"/>
    <path d="M37 134c-4 7-8 12-13 14" fill="none" stroke="#d9d9d9" stroke-linecap="round" stroke-width="4"/>
    <path d="M108 134c4 7 8 12 13 14" fill="none" stroke="#d9d9d9" stroke-linecap="round" stroke-width="4"/>
    <g fill="#64c6ff" stroke="#1582c5" stroke-width="1.6">
      <path d="M41 36c4-9 10-11 10-2 0 7-4 12-10 2Z"/>
      <path d="M112 34c4-9 10-11 10-2 0 7-4 12-10 2Z"/>
      <path d="M28 49c4-8 9-8 9 0 0 7-3 10-9 0Z"/>
      <path d="M123 52c4-8 9-8 9 0 0 7-3 10-9 0Z"/>
      <path d="M49 24c4-8 9-8 9 0 0 7-3 10-9 0Z"/>
    </g>
    <g fill="#f3f3f3" stroke="#bdbdbd" stroke-width="2">
      <circle cx="40" cy="139" r="8"/>
      <circle cx="32" cy="145" r="6"/>
      <circle cx="49" cy="146" r="7"/>
      <circle cx="112" cy="139" r="8"/>
      <circle cx="105" cy="146" r="6"/>
      <circle cx="121" cy="146" r="7"/>
    </g>
  </g>
</svg>
