<svg xmlns="http://www.w3.org/2000/svg" viewBox="0 0 160 160">
  <rect width="160" height="160" rx="36" fill="#fff9ef"/>
  <g transform="translate(10 10)">
    <path d="M36 24h52c12 0 22 10 22 22v38c0 9-5 18-13 23l9 20H56L36 99c-5-6-8-13-8-21V46c0-12 10-22 22-22Z" fill="#f4f4f4" stroke="#a9a9a9" stroke-width="4"/>
    <path d="M81 24c18 1 32 16 32 34v15c0 9-4 17-10 23" fill="#dcdcdc" stroke="#9f9f9f" stroke-width="4"/>
    <path d="M28 50c0-12 10-22 22-22h18v76H43c-8 0-15-7-15-15V50Z" fill="#ffffff" stroke="#bdbdbd" stroke-width="3"/>
    <path d="M67 84c3 4 8 7 15 7" fill="none" stroke="#383838" stroke-linecap="round" stroke-width="5"/>
    <path d="M44 58c6-6 13-6 19 0" fill="none" stroke="#383838" stroke-linecap="round" stroke-width="5"/>
    <path d="M70 58c6-6 13-6 19 0" fill="none" stroke="#383838" stroke-linecap="round" stroke-width="5"/>
    <path d="M50 70c0 8 5 13 13 13" fill="#fff" opacity="0.9"/>
    <path d="M74 70c0 8 5 13 13 13" fill="#fff" opacity="0.9"/>
    <path d="M128 62c-12-7-23-8-29-2" fill="none" stroke="#1d1d1d" stroke-linecap="round" stroke-width="7"/>
    <circle cx="127" cy="60" r="6" fill="#1d1d1d"/>
    <path d="M22 68c10 0 18-5 22-11" fill="none" stroke="#1d1d1d" stroke-linecap="round" stroke-width="7"/>
    <circle cx="21" cy="68" r="6" fill="#1d1d1d"/>
    <path d="M35 106c-1 10 4 19 13 24" fill="none" stroke="#f4f4f4" stroke-linecap="round" stroke-width="10"/>
    <path d="M88 106c4 9 11 17 19 22" fill="none" stroke="#f4f4f4" stroke-linecap="round" stroke-width="10"/>
    <path d="M46 28c18 3 31 17 31 34v18c0 11-6 21-16 27" fill="none" stroke="#d9d9d9" stroke-width="3"/>
    <path d="M55 97h23" fill="none" stroke="#d4b07a" stroke-linecap="round" stroke-width="5"/>
  </g>
</svg>
